<svg xmlns:xlink="http://www.w3.org/1999/xlink" xmlns="http://www.w3.org/2000/svg" version="1.1" class="highcharts-root" style="font-family:&quot;Open Sans Regular&quot;, &quot;Arial&quot;, &quot;DejaVu Sans&quot;, sans-serif;font-size:13px;" width="600" height="400" viewBox="0 0 600 400">
    <desc>Created with Highcharts 6.0.7</desc>
    <defs>
        <clipPath id="highcharts-gvmcpab-30">
            <rect x="0" y="0" width="523" height="218" fill="none" />
        </clipPath>
    </defs>
    <rect fill="#ffffff" class="highcharts-background" x="0" y="0" width="600" height="400" rx="0" ry="0" />
    <rect fill="none" class="highcharts-plot-background" x="67" y="82" width="523" height="218" />
    <g class="highcharts-grid highcharts-xaxis-grid ">
        <path fill="none" stroke="#e6e6e6" stroke-width="1" class="highcharts-grid-line" d="M 76.5 82 L 76.5 300" opacity="1" />
        <path fill="none" stroke="#e6e6e6" stroke-width="1" class="highcharts-grid-line" d="M 116.5 82 L 116.5 300" opacity="1" />
        <path fill="none" stroke="#e6e6e6" stroke-width="1" class="highcharts-grid-line" d="M 157.5 82 L 157.5 300" opacity="1" />
        <path fill="none" stroke="#e6e6e6" stroke-width="1" class="highcharts-grid-line" d="M 197.5 82 L 197.5 300" opacity="1" />
        <path fill="none" stroke="#e6e6e6" stroke-width="1" class="highcharts-grid-line" d="M 237.5 82 L 237.5 300" opacity="1" />
        <path fill="none" stroke="#e6e6e6" stroke-width="1" class="highcharts-grid-line" d="M 277.5 82 L 277.5 300" opacity="1" />
        <path fill="none" stroke="#e6e6e6" stroke-width="1" class="highcharts-grid-line" d="M 317.5 82 L 317.5 300" opacity="1" />
        <path fill="none" stroke="#e6e6e6" stroke-width="1" class="highcharts-grid-line" d="M 358.5 82 L 358.5 300" opacity="1" />
        <path fill="none" stroke="#e6e6e6" stroke-width="1" class="highcharts-grid-line" d="M 398.5 82 L 398.5 300" opacity="1" />
        <path fill="none" stroke="#e6e6e6" stroke-width="1" class="highcharts-grid-line" d="M 438.5 82 L 438.5 300" opacity="1" />
        <path fill="none" stroke="#e6e6e6" stroke-width="1" class="highcharts-grid-line" d="M 478.5 82 L 478.5 300" opacity="1" />
        <path fill="none" stroke="#e6e6e6" stroke-width="1" class="highcharts-grid-line" d="M 519.5 82 L 519.5 300" opacity="1" />
        <path fill="none" stroke="#e6e6e6" stroke-width="1" class="highcharts-grid-line" d="M 559.5 82 L 559.5 300" opacity="1" />
    </g>
    <g class="highcharts-grid highcharts-yaxis-grid ">
        <path fill="none" stroke="#e6e6e6" stroke-width="1" class="highcharts-grid-line" d="M 67 300.5 L 590 300.5" opacity="1" />
        <path fill="none" stroke="#e6e6e6" stroke-width="1" class="highcharts-grid-line" d="M 67 246.5 L 590 246.5" opacity="1" />
        <path fill="none" stroke="#e6e6e6" stroke-width="1" class="highcharts-grid-line" d="M 67 191.5 L 590 191.5" opacity="1" />
        <path fill="none" stroke="#e6e6e6" stroke-width="1" class="highcharts-grid-line" d="M 67 137.5 L 590 137.5" opacity="1" />
        <path fill="none" stroke="#e6e6e6" stroke-width="1" class="highcharts-grid-line" d="M 67 81.5 L 590 81.5" opacity="1" />
    </g>
    <rect fill="none" class="highcharts-plot-border" x="67" y="82" width="523" height="218" />
    <g class="highcharts-axis highcharts-xaxis ">
        <path fill="none" class="highcharts-tick" stroke="#ccd6eb" stroke-width="1" d="M 76.5 300 L 76.5 310" opacity="1" />
        <path fill="none" class="highcharts-tick" stroke="#ccd6eb" stroke-width="1" d="M 116.5 300 L 116.5 310" opacity="1" />
        <path fill="none" class="highcharts-tick" stroke="#ccd6eb" stroke-width="1" d="M 157.5 300 L 157.5 310" opacity="1" />
        <path fill="none" class="highcharts-tick" stroke="#ccd6eb" stroke-width="1" d="M 197.5 300 L 197.5 310" opacity="1" />
        <path fill="none" class="highcharts-tick" stroke="#ccd6eb" stroke-width="1" d="M 237.5 300 L 237.5 310" opacity="1" />
        <path fill="none" class="highcharts-tick" stroke="#ccd6eb" stroke-width="1" d="M 277.5 300 L 277.5 310" opacity="1" />
        <path fill="none" class="highcharts-tick" stroke="#ccd6eb" stroke-width="1" d="M 317.5 300 L 317.5 310" opacity="1" />
        <path fill="none" class="highcharts-tick" stroke="#ccd6eb" stroke-width="1" d="M 358.5 300 L 358.5 310" opacity="1" />
        <path fill="none" class="highcharts-tick" stroke="#ccd6eb" stroke-width="1" d="M 398.5 300 L 398.5 310" opacity="1" />
        <path fill="none" class="highcharts-tick" stroke="#ccd6eb" stroke-width="1" d="M 438.5 300 L 438.5 310" opacity="1" />
        <path fill="none" class="highcharts-tick" stroke="#ccd6eb" stroke-width="1" d="M 478.5 300 L 478.5 310" opacity="1" />
        <path fill="none" class="highcharts-tick" stroke="#ccd6eb" stroke-width="1" d="M 519.5 300 L 519.5 310" opacity="1" />
        <path fill="none" class="highcharts-tick" stroke="#ccd6eb" stroke-width="1" d="M 559.5 300 L 559.5 310" opacity="1" />
        <path fill="none" class="highcharts-axis-line" stroke="#ccd6eb" stroke-width="1" d="M 67 300.5 L 590 300.5" />
    </g>
    <g class="highcharts-axis highcharts-yaxis ">
        <path fill="none" class="highcharts-axis-line" d="M 67 82 L 67 300" />
    </g>
    <g class="highcharts-series-group">
        <g class="highcharts-series highcharts-series-0 highcharts-line-series highcharts-color-0 " transform="translate(67,82) scale(1 1)" clip-path="url(#highcharts-gvmcpab-30)">
            <path fill="none" d="M 10.057692307692 188.1231 L 30.173076923077 187.7961 L 50.288461538462 185.3 L 70.403846153846 186.10115 L 90.519230769231 190.7064 L 110.63461538462 189.3221 L 130.75 191.19145 L 150.86538461538 191.5348 L 170.98076923077 189.47469999999998 L 191.09615384615 189.4093 L 211.21153846154 192.5594 L 231.32692307692 188.6136 L 251.44230769231 184.12825 L 271.55769230769 175.04855 L 291.67307692308 169.32605 L 311.78846153846 172.62875 L 331.90384615385 162.1484 L 352.01923076923 153.0469 L 372.13461538462 139.2911 L 392.25 149.2973 L 412.36538461538 138.3646 L 432.48076923077 126.04215 L 452.59615384615 113.4799 L 472.71153846154 106.7001 L 492.82692307692 99.86035 L 512.94230769231 92.0287" class="highcharts-graph" stroke="#3e8601" stroke-width="2" stroke-linejoin="round" stroke-linecap="round" />
        </g>
        <g class="highcharts-markers highcharts-series-0 highcharts-line-series highcharts-color-0 " transform="translate(67,82) scale(1 1)" clip-path="none">
            <path fill="#3e8601" d="M 516 92.0287 A 4 4 0 1 1 515.9999980000001 92.02470000066667 Z" class="highcharts-point highcharts-color-0" />
        </g>
    </g>
    <text x="10" text-anchor="start" class="highcharts-subtitle" style="color:#333;font-size:13px;fill:#333;" y="58">
        <tspan>Million NOK</tspan>
    </text>
    <g class="highcharts-legend" transform="translate(191,352)">
        <rect fill="none" class="highcharts-legend-box" rx="0" ry="0" x="0" y="0" width="218" height="26" visibility="visible" />
        <g>
            <g>
                <g class="highcharts-legend-item highcharts-line-series highcharts-color-0 highcharts-series-0" transform="translate(8,3)">
                    <path fill="none" d="M 0 12 L 16 12" class="highcharts-graph" stroke="#3e8601" stroke-width="2" />
                    <path fill="#3e8601" d="M 12 12 A 4 4 0 1 1 11.999998000000167 11.996000000666664 Z" class="highcharts-point" />
                    <text x="21" style="color:#333333;font-size:13px;font-weight:bold;cursor:pointer;fill:#333333;" text-anchor="start" y="16">
                        <tspan>Power grid investments</tspan>
                    </text>
                </g>
            </g>
        </g>
    </g>
    <g class="highcharts-axis-labels highcharts-xaxis-labels ">
        <text x="80.1218216928337" style="color:#333;cursor:default;font-size:13px;font-weight:normal;font-family:&quot;Open Sans Regular&quot;, &quot;Arial&quot;, &quot;DejaVu Sans&quot;, sans-serif;fill:#333;" text-anchor="end" transform="translate(0,0) rotate(-45 80.1218216928337 317)" y="317" opacity="1">1990</text>
        <text x="120.35259092360171" style="color:#333;cursor:default;font-size:13px;font-weight:normal;font-family:&quot;Open Sans Regular&quot;, &quot;Arial&quot;, &quot;DejaVu Sans&quot;, sans-serif;fill:#333;" text-anchor="end" transform="translate(0,0) rotate(-45 120.35259092360171 317)" y="317" opacity="1">1992</text>
        <text x="160.58336015437172" style="color:#333;cursor:default;font-size:13px;font-weight:normal;font-family:&quot;Open Sans Regular&quot;, &quot;Arial&quot;, &quot;DejaVu Sans&quot;, sans-serif;fill:#333;" text-anchor="end" transform="translate(0,0) rotate(-45 160.58336015437172 317)" y="317" opacity="1">1994</text>
        <text x="200.8141293851417" style="color:#333;cursor:default;font-size:13px;font-weight:normal;font-family:&quot;Open Sans Regular&quot;, &quot;Arial&quot;, &quot;DejaVu Sans&quot;, sans-serif;fill:#333;" text-anchor="end" transform="translate(0,0) rotate(-45 200.8141293851417 317)" y="317" opacity="1">1996</text>
        <text x="241.0448986159117" style="color:#333;cursor:default;font-size:13px;font-weight:normal;font-family:&quot;Open Sans Regular&quot;, &quot;Arial&quot;, &quot;DejaVu Sans&quot;, sans-serif;fill:#333;" text-anchor="end" transform="translate(0,0) rotate(-45 241.0448986159117 317)" y="317" opacity="1">1998</text>
        <text x="281.2756678466817" style="color:#333;cursor:default;font-size:13px;font-weight:normal;font-family:&quot;Open Sans Regular&quot;, &quot;Arial&quot;, &quot;DejaVu Sans&quot;, sans-serif;fill:#333;" text-anchor="end" transform="translate(0,0) rotate(-45 281.2756678466817 317)" y="317" opacity="1">2000</text>
        <text x="321.5064370774517" style="color:#333;cursor:default;font-size:13px;font-weight:normal;font-family:&quot;Open Sans Regular&quot;, &quot;Arial&quot;, &quot;DejaVu Sans&quot;, sans-serif;fill:#333;" text-anchor="end" transform="translate(0,0) rotate(-45 321.5064370774517 317)" y="317" opacity="1">2002</text>
        <text x="361.7372063082217" style="color:#333;cursor:default;font-size:13px;font-weight:normal;font-family:&quot;Open Sans Regular&quot;, &quot;Arial&quot;, &quot;DejaVu Sans&quot;, sans-serif;fill:#333;" text-anchor="end" transform="translate(0,0) rotate(-45 361.7372063082217 317)" y="317" opacity="1">2004</text>
        <text x="401.9679755389917" style="color:#333;cursor:default;font-size:13px;font-weight:normal;font-family:&quot;Open Sans Regular&quot;, &quot;Arial&quot;, &quot;DejaVu Sans&quot;, sans-serif;fill:#333;" text-anchor="end" transform="translate(0,0) rotate(-45 401.9679755389917 317)" y="317" opacity="1">2006</text>
        <text x="442.19874476976173" style="color:#333;cursor:default;font-size:13px;font-weight:normal;font-family:&quot;Open Sans Regular&quot;, &quot;Arial&quot;, &quot;DejaVu Sans&quot;, sans-serif;fill:#333;" text-anchor="end" transform="translate(0,0) rotate(-45 442.19874476976173 317)" y="317" opacity="1">2008</text>
        <text x="482.4295140005217" style="color:#333;cursor:default;font-size:13px;font-weight:normal;font-family:&quot;Open Sans Regular&quot;, &quot;Arial&quot;, &quot;DejaVu Sans&quot;, sans-serif;fill:#333;" text-anchor="end" transform="translate(0,0) rotate(-45 482.4295140005217 317)" y="317" opacity="1">2010</text>
        <text x="522.6602832312916" style="color:#333;cursor:default;font-size:13px;font-weight:normal;font-family:&quot;Open Sans Regular&quot;, &quot;Arial&quot;, &quot;DejaVu Sans&quot;, sans-serif;fill:#333;" text-anchor="end" transform="translate(0,0) rotate(-45 522.6602832312916 317)" y="317" opacity="1">2012</text>
        <text x="562.8910524620617" style="color:#333;cursor:default;font-size:13px;font-weight:normal;font-family:&quot;Open Sans Regular&quot;, &quot;Arial&quot;, &quot;DejaVu Sans&quot;, sans-serif;fill:#333;" text-anchor="end" transform="translate(0,0) rotate(-45 562.8910524620617 317)" y="317" opacity="1">2014</text>
    </g>
    <g class="highcharts-axis-labels highcharts-yaxis-labels ">
        <text x="52" style="color:#333;cursor:default;font-size:13px;font-weight:normal;font-family:&quot;Open Sans Regular&quot;, &quot;Arial&quot;, &quot;DejaVu Sans&quot;, sans-serif;fill:#333;" text-anchor="end" transform="translate(0,0)" y="306" opacity="1">0</text>
        <text x="52" style="color:#333;cursor:default;font-size:13px;font-weight:normal;font-family:&quot;Open Sans Regular&quot;, &quot;Arial&quot;, &quot;DejaVu Sans&quot;, sans-serif;fill:#333;" text-anchor="end" transform="translate(0,0)" y="251" opacity="1">
            <tspan>10 000</tspan>
        </text>
        <text x="52" style="color:#333;cursor:default;font-size:13px;font-weight:normal;font-family:&quot;Open Sans Regular&quot;, &quot;Arial&quot;, &quot;DejaVu Sans&quot;, sans-serif;fill:#333;" text-anchor="end" transform="translate(0,0)" y="197" opacity="1">
            <tspan>20 000</tspan>
        </text>
        <text x="52" style="color:#333;cursor:default;font-size:13px;font-weight:normal;font-family:&quot;Open Sans Regular&quot;, &quot;Arial&quot;, &quot;DejaVu Sans&quot;, sans-serif;fill:#333;" text-anchor="end" transform="translate(0,0)" y="142" opacity="1">
            <tspan>30 000</tspan>
        </text>
        <text x="52" style="color:#333;cursor:default;font-size:13px;font-weight:normal;font-family:&quot;Open Sans Regular&quot;, &quot;Arial&quot;, &quot;DejaVu Sans&quot;, sans-serif;fill:#333;" text-anchor="end" transform="translate(0,0)" y="88" opacity="1">
            <tspan>40 000</tspan>
        </text>
    </g>
</svg>